<svg width="22" height="22" viewBox="0 0 22 22" fill="none" xmlns="http://www.w3.org/2000/svg">
    <g clip-path="url(#clip0_1_234)">
        <path d="M16.8337 5.16637C16.9626 5.2953 17.035 5.47017 17.035 5.6525C17.035 5.83484 16.9626 6.00971 16.8337 6.13864L11.9723 11L16.8337 15.8614C16.9626 15.9903 17.035 16.1652 17.035 16.3475C17.035 16.5298 16.9626 16.7047 16.8337 16.8336C16.7047 16.9626 16.5299 17.035 16.3475 17.035C16.1652 17.035 15.9903 16.9626 15.8614 16.8336L11 11.9723L6.13867 16.8336C6.00974 16.9626 5.83487 17.035 5.65253 17.035C5.47019 17.035 5.29533 16.9626 5.16639 16.8336C5.03746 16.7047 4.96503 16.5298 4.96503 16.3475C4.96503 16.1652 5.03746 15.9903 5.16639 15.8614L10.0278 11L5.16639 6.13864C5.03746 6.00971 4.96503 5.83484 4.96503 5.65251C4.96503 5.47017 5.03746 5.2953 5.16639 5.16637C5.29533 5.03744 5.47019 4.965 5.65253 4.965C5.83487 4.965 6.00974 5.03744 6.13867 5.16637L11 10.0277L15.8614 5.16637C15.9903 5.03744 16.1652 4.96501 16.3475 4.965C16.5299 4.965 16.7047 5.03744 16.8337 5.16637Z" fill="#9E78CF"/>
    </g>
    <defs>
        <clipPath id="clip0_1_234">
            <rect width="22" height="22" fill="#9E78CF"/>
        </clipPath>
    </defs>
</svg>
